<?xml version="1.0" encoding="UTF-8" standalone="no"?>
<svg
   xmlns:dc="http://purl.org/dc/elements/1.1/"
   xmlns:cc="http://creativecommons.org/ns#"
   xmlns:rdf="http://www.w3.org/1999/02/22-rdf-syntax-ns#"
   xmlns:svg="http://www.w3.org/2000/svg"
   xmlns="http://www.w3.org/2000/svg"
   xmlns:sodipodi="http://sodipodi.sourceforge.net/DTD/sodipodi-0.dtd"
   xmlns:inkscape="http://www.inkscape.org/namespaces/inkscape"
   version="1.1"
   id="Layer_1"
   x="0px"
   y="0px"
   width="512px"
   height="512px"
   viewBox="0 0 512 512"
   enable-background="new 0 0 512 512"
   xml:space="preserve"
   sodipodi:docname="home.svg"
   inkscape:version="1.0.1 (3bc2e813f5, 2020-09-07)"><metadata
   id="metadata27"><rdf:RDF><cc:Work
       rdf:about=""><dc:format>image/svg+xml</dc:format><dc:type
         rdf:resource="http://purl.org/dc/dcmitype/StillImage" /><dc:title></dc:title></cc:Work></rdf:RDF></metadata><defs
   id="defs25" /><sodipodi:namedview
   pagecolor="#ffffff"
   bordercolor="#666666"
   borderopacity="1"
   objecttolerance="10"
   gridtolerance="10"
   guidetolerance="10"
   inkscape:pageopacity="0"
   inkscape:pageshadow="2"
   inkscape:window-width="1920"
   inkscape:window-height="986"
   id="namedview23"
   showgrid="false"
   inkscape:zoom="1.5625"
   inkscape:cx="142.72"
   inkscape:cy="256"
   inkscape:window-x="-11"
   inkscape:window-y="-11"
   inkscape:window-maximized="1"
   inkscape:current-layer="Layer_1"
   inkscape:snap-object-midpoints="false" />
<g
   id="g20">
	<g
   id="g6">
		<g
   id="g4">
			<path
   fill-rule="evenodd"
   clip-rule="evenodd"
   fill="#00BAD3"
   d="M256,1C115.169,1,1,115.158,1,256s114.169,255,255,255     s255-114.158,255-255S396.831,1,256,1z"
   id="path2" />
		</g>
	</g>
	<g
   id="g12">
		<g
   id="g10">
			
		</g>
	</g>
	<g
   id="g18">
		<g
   id="g16">
			
		</g>
	</g>
</g>
<path
   fill-rule="evenodd"
   clip-rule="evenodd"
   fill="#f4eeeb"
   d="m 255.97082,270.27732 c -20.62643,0 -37.50809,12.86082 -37.50809,28.55622 V 356 h 75.01512 v -57.14898 c 0,-15.71288 -16.88166,-28.59197 -37.50703,-28.5737 z M 368.35013,241.64008 V 184.6007 h -37.49556 v 28.47442 L 255.97082,156 106,270.27732 h 37.88756 l -0.51084,0.35343 v 85.36846 h 37.49556 v -99.88683 l 75.09854,-57.23873 74.88375,57.07513 v 100.04963 h 37.49556 V 270.27732 H 406 Z"
   id="path8-8"
   style="fill:#ffe680;stroke-width:0.909944" /></svg>
